<svg width="26" height="26" viewBox="0 0 26 26" fill="none" xmlns="http://www.w3.org/2000/svg">
<path d="M7.58301 16.3016V18.7984C7.58301 19.1815 7.94993 19.492 8.40256 19.492H11.3747M7.58301 16.3016V9.13735C7.58301 8.75427 7.94993 7.22228 8.40256 7.22228H9.41149M7.58301 16.3016H10.4203M19.3103 16.3016V18.7984C19.3103 19.1815 18.9434 19.492 18.4907 19.492H11.3747M19.3103 16.3016V9.23992C19.3103 8.85684 18.9434 7.22228 18.4907 7.22228H17.482M19.3103 16.3016H16.4732M10.4203 16.3016H16.4732M10.4203 16.3016L9.41149 7.22228M16.4732 16.3016L17.482 7.22228M11.9335 9.74433H14.96M9.41149 7.22228H13.5413M17.482 7.22228H13.5413M13.5413 7.22228V5.7327M13.5413 5.7327L10.5622 4.73964M13.5413 5.7327L16.5205 4.73964M9.56912 3.25006H17.482M8.66622 23.2917L9.49526 22.0482M18.4162 23.2917L17.5872 22.0482M11.3747 19.492L9.74955 21.6667L9.49526 22.0482M15.708 19.5001L17.3329 21.6667L17.5872 22.0482M9.49526 22.0482H17.5872" stroke="#261F3C" stroke-linecap="round" stroke-linejoin="round"/>
</svg>
